<?xml version="1.0"?>
<svg width="894.24907" height="448.2822" xmlns="http://www.w3.org/2000/svg" xmlns:svg="http://www.w3.org/2000/svg" xmlns:se="http://svg-edit.googlecode.com" data-name="Layer 1">
 <g class="layer">
  <title>Layer 1</title>
  <path d="m447.36954,674.1411q-40.47485,0 -80.82885,-1.44922c-38.44043,-1.38086 -78.18993,-2.80762 -115.13556,-23.29883c-25.84506,-14.333 -48.73487,-37.3291 -66.19418,-66.50391a223.77042,223.77042 0 0 1 -25.36927,-63.60449a261.47594,261.47594 0 0 1 0.95286,-123.77929a219.83406,219.83406 0 0 1 14.7411,-40.40039c26.94295,-55.79346 76.08491,-93.2461 134.82585,-102.75391a6.80653,6.80653 0 0 1 1.463,-0.03125c0.26419,0.01416 0.52753,0.0293 0.796,0.01807l0.3456,-0.10987a16.88152,16.88152 0 0 1 2.72076,-0.69824c90.59405,-13.48682 186.365,13.80176 276.95228,78.91357c70.04208,50.35108 162.86753,77.46436 283.78131,82.88916l1.71659,0.08985c33.6596,1.93359 66.21835,15.81054 94.16038,40.13281c27.57946,24.00586 48.28706,56.03418 59.88378,92.624c1.42568,4.46094 2.73262,9.1045 3.88437,13.80079a26.0388,26.0388 0 0 1 -6.941,24.69042l0,0.00879l-0.30109,0.30957c-0.72471,0.72071 -1.48759,1.41211 -2.26743,2.05567l-0.91682,0.75586c-7.72718,6.36523 -13.83023,11.39355 -21.13462,15.29883a64.98321,64.98321 0 0 1 -15.41875,5.82128c-29.46525,7.1836 -59.38763,13.84375 -88.936,19.79688c-57.3848,11.57031 -116.28137,21.11523 -175.05411,28.36816a2269.14089,2269.14089 0 0 1 -277.7262,17.05569zm-136.232,-419.84522a3.50685,3.50685 0 0 0 -0.5394,0.03662c-58.19178,9.41895 -106.86855,46.50391 -133.54434,101.74512a217.62434,217.62434 0 0 0 -14.59523,40a259.18846,259.18846 0 0 0 -0.941,122.68067a221.62191,221.62191 0 0 0 25.12332,62.99609c17.28842,28.88867 39.94414,51.6543 65.51823,65.83594c36.614,20.30761 76.17609,21.72851 114.43587,23.10156a2266.31375,2266.31375 0 0 0 358.31544,-15.59473c58.73458,-7.249 117.593,-16.78711 174.94,-28.35058c29.52843,-5.94825 59.43,-12.60352 88.87535,-19.78321a63.35819,63.35819 0 0 0 15.04728,-5.67871c7.15725,-3.82617 13.20219,-8.80664 20.85517,-15.11133l0.91681,-0.75488c0.67044,-0.55371 1.32858,-1.14551 1.9583,-1.76074l0.18065,-0.18945c6.2892,-6.33887 8.73475,-14.70215 6.70987,-22.94434l0,-0.001c-1.13944,-4.64648 -2.4324,-9.24023 -3.84366,-13.65527c-23.69,-74.74609 -84.97359,-127.56934 -152.49635,-131.44727l-1.70726,-0.08984c-55.23185,-2.47851 -103.56386,-9.34375 -147.75156,-20.99023c-52.74984,-13.90235 -98.80127,-34.83008 -136.87574,-62.20069c-90.24209,-64.8623 -185.61273,-92.04931 -275.81114,-78.62646a15.47307,15.47307 0 0 0 -2.47862,0.64258l-0.62294,0.17431a9.37442,9.37442 0 0 1 -1.06184,-0.01269c-0.2082,-0.01072 -0.41005,-0.02147 -0.60724,-0.02147l0.00003,0z" fill="#f0f0f0" id="svg_1" transform="translate(-152.87546 -225.8589)"/>
  <path d="m279.326742,146.055698c-2.498,-2.39659 -5.05306,-15.76155 -8.24216,-17.11834c2.38389,5.2686 0.65305,6.66348 0.64035,12.44567a39.12306,39.12306 0 0 1 -1.14125,9.74477l-54.02414,0l0,-42.16184a28.84672,28.84672 0 0 1 28.84757,-28.84758a17.21385,17.21385 0 0 1 4.27584,0.626a27.42847,27.42847 0 0 1 19.35059,19.40382c4.11856,15.05361 10.66859,40.11144 10.2932,45.9075z" fill="#ddc096" id="svg_2"/>
  <path d="m372.605,423.78163l0.02663,-32.86268l-19.31763,1.72626l6.81759,20.7264l-3.19073,52.09644a8.17282,8.17282 0 1 0 9.88987,6.88859l5.77427,-48.57501z" fill="#ffb6b6" id="svg_3" transform="translate(-152.87546 -225.8589)"/>
  <polygon fill="#ffb6b6" id="svg_4" points="257.746 432.76 265.55 432.759 269.263 402.657 257.744 402.657 257.746 432.76"/>
  <path d="m407.97822,654.76874l12.33707,-0.73635l0,5.28573l11.7292,8.10061a3.30167,3.30167 0 0 1 -1.87612,6.01864l-14.68775,0l-2.53162,-5.22837l-0.98849,5.2284l-5.53786,0l1.55557,-18.66866z" fill="#2f2e41" id="svg_5" transform="translate(-152.87546 -225.8589)"/>
  <polygon fill="#ffb6b6" id="svg_6" points="212.62 432.76 220.425 432.759 224.137 402.657 212.619 402.657 212.62 432.76"/>
  <path d="m362.85281,654.76874l12.33707,-0.73635l0,5.28573l11.72919,8.10061a3.30167,3.30167 0 0 1 -1.87612,6.01864l-14.68774,0l-2.53166,-5.2284l-0.98848,5.2284l-5.53787,0l1.55561,-18.66863z" fill="#2f2e41" id="svg_7" transform="translate(-152.87546 -225.8589)"/>
  <path d="m403.67163,355.43027l-16.16732,0.317l-11.41223,12.04624l-9.14932,1.3419a18.2656,18.2656 0 0 0 -15.57717,16.89718l0,0l1.585,8.70644l9.51019,0l5.50164,32.30284c-2.13925,5.4511 -2.28468,9.75391 2.10651,11.444l13.63127,25.67751l40.2598,-18.0693c2.04173,-3.51013 2.696,-7.03574 0.609,-10.46423l2.87806,-49.45l9.67743,0l0,0c0,-9.24869 -3.12837,-17.04569 -12.31963,-18.07484a108.65383,108.65383 0 0 0 -10.98908,-0.62852l-10.14415,-12.04622z" fill="#e6e6e6" id="svg_8" transform="translate(-152.87546 -225.8589)"/>
  <path d="m423.96,446.09408s-39.30879,6.97414 -53.89108,-7.60815c0,0 -1.48046,2.51333 -3.71127,6.68153c-0.64153,1.19868 -1.88058,2.0107 -2.62886,3.46267c-0.68006,1.31961 -2.4292,2.94192 -3.17006,4.43857c-0.596,1.204 0.36014,2.77744 -0.26,4.07817c-7.46789,15.66368 -16.19278,37.75861 -14.32228,52.34848c1.20624,9.40867 3.69764,31.30177 6.32152,54.81615c0.205,1.83719 -1.45549,4.19725 -1.24942,6.04906c0.19432,1.74621 2.25519,2.98365 2.44951,4.73391c0.129,1.16211 -1.31017,2.34755 -1.18148,3.50826c0.14118,1.27343 1.8502,2.52186 1.99063,3.79039c3.59444,32.46814 6.88554,62.78094 6.88554,62.78094l18.38637,0l3.46913,-69.2317l-2.83512,-25.23619l6.65714,-51.038l9.19318,48.502l1.18261,27.29716l9.71542,70.9748l16.99852,0l0,-68.708l1.268,-3.56944l-1.268,-4.57787l1.268,-4.93232l-1.268,-5.37164l0,-113.18878z" fill="#2f2e41" id="svg_9" transform="translate(-152.87546 -225.8589)"/>
  <path d="m408.634,346.05478a18.326,18.326 0 1 1 3.17509,-15.31446c0.05272,0.21964 0.09718,0.43807 0.14038,0.66481a18.301,18.301 0 0 1 -3.31547,14.64965z" fill="#ffb6b6" id="svg_10" transform="translate(-152.87546 -225.8589)"/>
  <path d="m251.937422,109.739428a9.633,9.633 0 0 0 -2.815,-5.10383a13.1421,13.1421 0 0 1 -0.76086,5.50961a25.3951,25.3951 0 0 1 -13.95455,-2.76428c-3.23345,-2.19366 -7.34819,-2.00351 -12.14136,0a17.75012,17.75012 0 0 1 17.75236,-17.75236l3.17006,0a17.75559,17.75559 0 0 1 17.75235,17.75236a52.85225,52.85225 0 0 1 -9.003,2.3585z" fill="#ddc096" id="svg_11" transform="matrix(1 0 0 1 0 0)"/>
  <circle cx="113.24907" cy="285" fill="#f0f0f0" id="svg_12" r="51"/>
  <circle cx="438.24907" cy="51" fill="#f0f0f0" id="svg_13" r="51"/>
  <circle cx="843.24907" cy="293" fill="#f0f0f0" id="svg_14" r="51"/>
  <path d="m683.12454,282.42068l0,115.64605a9.11863,9.11863 0 0 1 -9.02354,9.11927a0.80182,0.80182 0 0 1 -0.09986,0.00416l-13.45985,0a40.6065,40.6065 0 0 1 -40.6065,-40.6065l0,-84.163a9.12338,9.12338 0 0 1 9.12338,-9.12338l5.454,0c-2.52672,7.37064 31.7654,10.47377 33.648,0l5.841,0a9.12341,9.12341 0 0 1 9.12337,9.1234z" fill="#6c63ff" id="svg_15" transform="translate(-152.87546 -225.8589)"/>
  <path d="m643.18162,264.64967a1.19706,1.19706 0 0 1 1.19565,-1.19566l8.13043,0a1.19566,1.19566 0 0 1 0,2.39131l-8.13043,0a1.19706,1.19706 0 0 1 -1.19565,-1.19565z" fill="#3f3d56" id="svg_16" transform="translate(-152.87546 -225.8589)"/>
  <path d="m676.79446,421.8589l-51.416,0a15.06329,15.06329 0 0 1 -15.04639,-15.0459l0,-80.8413a2.18651,2.18651 0 0 1 -0.91113,-1.77881l0,-8.13037a2.18557,2.18557 0 0 1 0.91113,-1.77832l0,-2.18213a2.1856,2.1856 0 0 1 -0.91113,-1.77832l0,-8.13086a2.18557,2.18557 0 0 1 0.91113,-1.77832l0,-3.94385a2.18353,2.18353 0 0 1 -1.15039,-1.92969l0,-8.13037a2.1843,2.1843 0 0 1 1.15039,-1.93018l0,-10.80664a15.06329,15.06329 0 0 1 15.04637,-15.04584l51.416,0a15.06288,15.06288 0 0 1 15.0459,15.04589l0,23.55611a1.8859,1.8859 0 0 1 0.88574,1.59814l0,15.50293a1.88674,1.88674 0 0 1 -0.88574,1.59863l0,90.8833a15.06288,15.06288 0 0 1 -15.04588,15.0459zm-51.41602,-161.2309a13.061,13.061 0 0 0 -13.04639,13.04589l0,12.50782l-0.96191,0.03711a0.19547,0.19547 0 0 0 -0.18848,0.19189l0,8.13029a0.19617,0.19617 0 0 0 0.18848,0.1919l0.96191,0.03662l0,7.04931l-0.76074,0.1875a0.19651,0.19651 0 0 0 -0.15039,0.18653l0,8.13086a0.19651,0.19651 0 0 0 0.15039,0.18652l0.76074,0.1875l0,4.99072l-0.76074,0.1875a0.19651,0.19651 0 0 0 -0.15039,0.18653l0,8.13037a0.19664,0.19664 0 0 0 0.15039,0.187l0.76074,0.1875l0,82.24564a13.061,13.061 0 0 0 13.04639,13.0459l51.416,0a13.0609,13.0609 0 0 0 13.0459,-13.0459l0,-92.5957l0.88574,0l0,-15.2749l-0.88574,0l0,-25.26856a13.06089,13.06089 0 0 0 -13.0459,-13.04589l-51.416,0.00005z" fill="#3f3d56" id="svg_17" transform="translate(-152.87546 -225.8589)"/>
  <circle cx="504.1757" cy="38.79076" fill="#3f3d56" id="svg_18" r="1.19565"/>
  <path d="m396.95559,496.26173l-133.78711,0a7.18838,7.18838 0 0 1 -7.16992,-7.16894l0,-65.189a7.1884,7.1884 0 0 1 7.16894,-7.16992l133.78711,0a7.18841,7.18841 0 0 1 7.16993,7.16895l0,65.189a7.1884,7.1884 0 0 1 -7.16895,7.16991z" fill="#fff" id="svg_19" transform="translate(-152.87546 -225.8589)"/>
  <path d="m396.95559,496.26173l-133.78711,0a7.18838,7.18838 0 0 1 -7.16992,-7.16894l0,-65.189a7.1884,7.1884 0 0 1 7.16894,-7.16992l133.78711,0a7.18841,7.18841 0 0 1 7.16993,7.16895l0,65.189a7.1884,7.1884 0 0 1 -7.16895,7.16991zm-133.78711,-77.52783a5.18526,5.18526 0 0 0 -5.16992,5.1709l0,65.187a5.18494,5.18494 0 0 0 5.1709,5.16992l133.78418,0a5.18515,5.18515 0 0 0 5.1709,-5.17089l0,-65.187a5.18527,5.18527 0 0 0 -5.1709,-5.16992l-133.78516,-0.00001z" fill="#3f3d56" id="svg_20" transform="translate(-152.87546 -225.8589)"/>
  <path d="m184.356892,260.768938c-26.38574,0 -53.89882,-0.25214 -64.16427,-0.41561a5.17627,5.17627 0 0 1 -5.06954,-5.15521l0,-53.96164a1.82954,1.82954 0 0 1 1.823,-1.82756l120.47574,0a1.82942,1.82942 0 0 1 1.82726,1.8227l0,36.612a22.84157,22.84157 0 0 1 -22.45691,22.75218c-9.56736,0.12457 -20.89633,0.17314 -32.43528,0.17314z" fill="#6c63ff" id="svg_21" transform="matrix(1 0 0 1 0 0)"/>
  <path d="m383.146,460.33888l-108.85936,0a4.43849,4.43849 0 0 1 -4.16406,-2.93554l-12.32129,-34.56641a4.4228,4.4228 0 0 1 4.15772,-5.90674l136.07226,-0.18945a4.42312,4.42312 0 0 1 4.35938,5.19775l0.105,0.04444l-0.39063,0.91162l-0.0039,0.00927l-14.895,34.75538a4.40962,4.40962 0 0 1 -4.06012,2.67968zm14.8916,-41.59814l-136.07471,0.18945a2.42256,2.42256 0 0 0 -2.27783,3.23535l12.3208,34.56494a2.43347,2.43347 0 0 0 2.28223,1.6084l108.85791,0a2.4131,2.4131 0 0 0 2.22168,-1.46679l14.89551,-34.75635l0.73242,0.314l-0.73242,-0.314a2.42117,2.42117 0 0 0 -2.22559,-3.375z" fill="#3f3d56" id="svg_22" transform="translate(-152.87546 -225.8589)"/>
  <circle cx="176.98309" cy="233.4802" fill="#fff" id="svg_23" r="8.52402"/>
  <circle cx="498.98309" cy="159.4802" fill="#fff" id="svg_24" r="8.52402"/>
  <path d="m974.25454,508.9789l-22.77,-22.48a11.884,11.884 0 0 0 -8.43,-3.46l-0.08,0a11.9143,11.9143 0 0 0 -8.46,3.56a27.99135,27.99135 0 0 0 -0.49,38.84c0.24,0.26 0.49,0.51 0.74,0.76a27.248,27.248 0 0 0 4.56,3.65a27.67639,27.67639 0 0 0 15.11,4.43l0.17,0a27.82649,27.82649 0 0 0 19.75,-8.32a12.023,12.023 0 0 0 -0.1,-16.98zm-1.32,15.57a26.09171,26.09171 0 0 1 -32.76,3.48a26.78641,26.78641 0 0 1 -4.01,-3.25a26.00168,26.00168 0 0 1 -0.23,-36.77a9.91308,9.91308 0 0 1 7.06,-2.97l0.06,0a9.911,9.911 0 0 1 7.02,2.88l22.77,22.49a10.00707,10.00707 0 0 1 0.09,14.14z" fill="#3f3d56" id="svg_25" transform="translate(-152.87546 -225.8589)"/>
  <path d="m899.54452,435.19887l-22.77,-22.49a11.92636,11.92636 0 0 0 -8.43,-3.46l-0.07,0a11.947,11.947 0 0 0 -8.47,3.56994a28.07691,28.07691 0 0 0 -4.72,33l0.01,0.01a27.562,27.562 0 0 0 4.33,5.93c0.19,0.22 0.41,0.44 0.63,0.66a27.83532,27.83532 0 0 0 19.67,8.08l0.18,0a27.854,27.854 0 0 0 19.75,-8.33a11.99892,11.99892 0 0 0 -0.11,-16.97l0,0.00006zm-1.32,15.57a25.85541,25.85541 0 0 1 -18.33,7.73l-0.17,0a26.00049,26.00049 0 0 1 -18.49,-44.27a10.00761,10.00761 0 0 1 14.14,-0.09l22.77,22.48a10.01911,10.01911 0 0 1 0.07999,14.15001l0.00001,-0.00001z" fill="#3f3d56" id="svg_26" transform="translate(-152.87546 -225.8589)"/>
  <path d="m975.70994,516.04649l-25.1032,-24.79357a8.72678,8.72678 0 0 0 -12.32743,0.0765a22,22 0 1 0 31.30516,30.919l6.12547,-6.20193z" fill="#6c63ff" id="svg_27" transform="translate(-152.87546 -225.8589)"/>
  <path d="m901.00443,442.26243l-25.1032,-24.79356a8.72676,8.72676 0 0 0 -12.32743,0.0765a22,22 0 1 0 31.30516,30.919l6.12547,-6.20194z" fill="#6c63ff" id="svg_28" transform="translate(-152.87546 -225.8589)"/>
  <path d="m948.12454,531.48891l-0.6,1.57995q-4.23,-1.60491 -8.2,-3.22c-46.88,-19.13 -69.26,-41.52 -84.23,-84.02l-0.01,-0.01q-1.065,-3 -2.07,-6.13995l1.58,-0.51a25.54187,25.54187 0 0 0 2.3,5.78q1.23,3.495 2.53,6.81c14.07,35.87 34.82,56.37 74.6,73.68q3,1.30507 6.15,2.59a26.08663,26.08663 0 0 0 7.95,3.46z" fill="#3f3d56" id="svg_29" transform="translate(-152.87546 -225.8589)"/>
  <rect fill="#3f3d56" height="73.00017" id="svg_30" transform="translate(-229.92517 559.82386) rotate(-45.35527)" width="2.00052" x="900.62305" y="448.539"/>
  <path d="m436.64029,416.17348l0.02662,-32.86269l-19.31762,1.72627l6.81759,20.7264l-24.74716,37.51415a8.17278,8.17278 0 1 0 9.88987,6.88859l27.3307,-33.99272z" fill="#ffb6b6" id="svg_31" transform="translate(-152.87546 -225.8589)"/>
 </g>
</svg>