<?xml version="1.0"?>
<svg width="563.23193" height="596.81738" xmlns="http://www.w3.org/2000/svg" xmlns:svg="http://www.w3.org/2000/svg" data-name="Layer 1">
 <g class="layer">
  <title>Layer 1</title>
  <circle cx="215.61" cy="68.27" fill="#ff7f00" id="svg_1" r="26.7"/>
  <path d="m601.12,230.11a13.24,13.24 0 0 0 -11.17,-9.29a1.08,1.08 0 0 0 -0.18,0a1.42,1.42 0 0 0 -0.22,-0.05c-8.94,-1.16 -18.88,1.66 -25.57,7.8a23.96,23.96 0 0 0 -5.83,8.04a12.92,12.92 0 0 0 -10.83,-5.28a13.18,13.18 0 0 0 -11.8,9.51a1.53,1.53 0 0 0 0.69,1.69a6.67,6.67 0 0 0 2.79,1.42c2.21,0.47 4.44,0.9 6.67,1.29q6.54,1.14 13.15,1.85q4.36,0.47 8.75,0.74c6.04,0.38 12.11,0.47 18.16,0.28c3,-0.1 5.88,-0.2 8.62,-1.52a12.8,12.8 0 0 0 4.95,-4.31a14.55,14.55 0 0 0 1.82,-12.17z" fill="#e6e6e6" id="svg_2" transform="translate(-325.74624 -174.48895)"/>
  <path d="m546.19,269.01a13.65,13.65 0 0 0 -0.56,-3.3a13.26,13.26 0 0 0 -11.18,-9.29a0.96,0.96 0 0 0 -0.17,0a1.89,1.89 0 0 0 -0.23,-0.05a33.19,33.19 0 0 0 -14.69,1.51c-7.26,2.43 -13.63,7.33 -16.7,14.33a12.92,12.92 0 0 0 -10.84,-5.28a13.18,13.18 0 0 0 -11.8,9.51a1.56,1.56 0 0 0 0.69,1.69a6.73,6.73 0 0 0 2.79,1.42c2.22,0.47 4.44,0.9 6.68,1.29q6.54,1.14 13.14,1.85a195.16,195.16 0 0 0 26.92,1.02c2.99,-0.1 5.88,-0.2 8.62,-1.52a12.77,12.77 0 0 0 4.94,-4.31a14.26,14.26 0 0 0 2.39,-8.87z" fill="#e6e6e6" id="svg_3" transform="translate(-325.74624 -174.48895)"/>
  <path d="m743.88,605.97l-24.34,0l0,-379.97c-1.64,-1.21 -3.29,-2.41 -4.96,-3.58q-0.5,-0.35 -0.99,-0.69a288.32,288.32 0 0 0 -62.01,-32.94l-4.72,65.1l0,0l-30.37,0l0,-76.01c-1.98,-0.49 -3.96,-0.95 -5.96,-1.38l0,77.39l-114.68,0l0,-79.4c-1.99,0.37 -3.98,0.75 -5.96,1.16l0,78.24l-31.37,0l0,0l-4.95,-68.27a287.69,287.69 0 0 0 -60.78,29.46c-0.66,0.42 -1.32,0.84 -1.98,1.28c-1.33,0.86 -2.66,1.74 -3.97,2.63l0,386.98l-34.27,0a26.8,26.8 0 0 0 -24.89,36.79a25.54,25.54 0 0 0 1.75,3.56a27.1,27.1 0 0 0 3.02,4.18a26.76,26.76 0 0 0 20.12,9.11l391.31,0a26.82,26.82 0 0 0 0,-53.64zm-103.56,-261.7l-18.93,261.7l-137.4,0l-18.93,-261.7l175.26,0zm6.11,-84.42l-4.67,64.56l-25.27,0l0,-64.56l29.94,0zm-35.9,0l0,64.56l-45.64,0a10.92,10.92 0 0 0 -9.72,-5.96l-5.96,0a10.92,10.92 0 0 0 -9.72,5.96l-43.64,0l0,-64.56l114.68,0zm-120.64,64.56l-26.27,0l-4.67,-64.56l30.94,0l0,64.56z" fill="#f2f2f2" id="svg_4" transform="translate(-325.74624 -174.48895)"/>
  <path d="m328.11,649.22a289,289 0 0 0 28.12,28.95l379.58,1a289,289 0 0 0 28.12,-28.95l-435.82,-1z" fill="#3f3d56" id="svg_5" transform="translate(-325.74624 -174.48895)"/>
  <path d="m519.8,552.41l0,102.56l71.85,0l0,-102.56a3.45,3.45 0 0 0 -2.43,-3.3a3.17,3.17 0 0 0 -1.03,-0.16l-64.92,0a3.46,3.46 0 0 0 -3.47,3.46zm28.04,35.24a7.67,7.67 0 0 1 15.34,0l0,11.9a7.67,7.67 0 0 1 -15.34,0l0,-11.9z" fill="#2f2e41" id="svg_6" transform="translate(-325.74624 -174.48895)"/>
  <path d="m519.58,651.69l0,9.89a1.95,1.95 0 0 0 1.93,1.94l68.43,0a1.94,1.94 0 0 0 1.93,-1.94l0,-9.89l-72.29,0z" fill="#3f3d56" id="svg_7" transform="translate(-325.74624 -174.48895)"/>
  <path d="m406.77,397.89l0,187.26a9.01,9.01 0 0 0 9,9l277.5,0a9.01,9.01 0 0 0 9,-9l0,-187.26a9.01,9.01 0 0 0 -9,-8.99l-277.5,0a9.01,9.01 0 0 0 -9,8.99z" fill="#3f3d56" id="svg_8" transform="translate(-325.74624 -174.48895)"/>
  <path d="m87.53,225.73l0,182.62a4.82,4.82 0 0 0 4.81,4.81l272.87,0a4.82,4.82 0 0 0 4.81,-4.81l0,-182.62a4.82,4.82 0 0 0 -4.81,-4.82l-272.87,0a4.82,4.82 0 0 0 -4.81,4.82z" fill="#6c63ff" id="svg_9"/>
  <path d="m468.92,665.85a2.95,2.95 0 0 0 2.32,1.11l162.34,0a2.99,2.99 0 0 0 2.92,-3.6l-2.52,-11.97a2.99,2.99 0 0 0 -1.86,-2.17a2.89,2.89 0 0 0 -1.06,-0.2l-157.31,0a2.89,2.89 0 0 0 -1.06,0.2a2.99,2.99 0 0 0 -1.86,2.17l-2.52,11.97a2.98,2.98 0 0 0 0.61,2.49z" fill="#2f2e41" id="svg_10" transform="translate(-325.74624 -174.48895)"/>
  <path d="m473.75,651.52a0.4,0.4 0 0 0 -0.14,0.02a0.51,0.51 0 0 0 -0.33,0.35l-2.52,11.98a0.48,0.48 0 0 0 0.1,0.4l0.01,0.01a0.45,0.45 0 0 0 0.37,0.18l162.34,0a0.47,0.47 0 0 0 0.37,-0.18a0.46,0.46 0 0 0 0.11,-0.4l-2.52,-11.98a0.5,0.5 0 0 0 -0.31,-0.35a0.44,0.44 0 0 0 -0.17,-0.03l-157.31,0z" fill="#fff" id="svg_11" transform="translate(-325.74624 -174.48895)"/>
  <path d="m426.87,420.55l255.32,0a1.02,1.02 0 0 0 0,-2.03l-255.32,0a1.02,1.02 0 0 0 0,2.03z" fill="#3f3d56" id="svg_12" transform="translate(-325.74624 -174.48895)"/>
  <ellipse cx="339.06" cy="232.77" fill="#3f3d56" id="svg_13" rx="5.95" ry="6.08"/>
  <ellipse cx="318.51" cy="232.77" fill="#3f3d56" id="svg_14" rx="5.95" ry="6.08"/>
  <ellipse cx="297.95" cy="232.77" fill="#3f3d56" id="svg_15" rx="5.95" ry="6.08"/>
  <path d="m438.16,403.79a1.09,1.09 0 0 0 1.09,1.1l14.6,0a1.11,1.11 0 0 0 0,-2.21l-14.6,0a1.1,1.1 0 0 0 -1.09,1.11z" fill="#3f3d56" id="svg_16" transform="translate(-325.74624 -174.48895)"/>
  <path d="m438.16,407.94a1.09,1.09 0 0 0 1.09,1.1l14.6,0a1.11,1.11 0 0 0 0,-2.21l-14.6,0a1.1,1.1 0 0 0 -1.09,1.11z" fill="#3f3d56" id="svg_17" transform="translate(-325.74624 -174.48895)"/>
  <path d="m438.16,412.08a1.1,1.1 0 0 0 1.09,1.11l14.6,0a1.11,1.11 0 0 0 0,-2.21l-14.6,0a1.09,1.09 0 0 0 -1.09,1.1z" fill="#3f3d56" id="svg_18" transform="translate(-325.74624 -174.48895)"/>
  <path d="m644.15,451.55l-179.24,0a8.89,8.89 0 0 0 -8.88,8.88l0,87.23a8.89,8.89 0 0 0 8.88,8.89l179.24,0a8.89,8.89 0 0 0 8.88,-8.89l0,-87.23a8.89,8.89 0 0 0 -8.88,-8.88zm6.88,8.88l0,25.45l-63,0l0,-32.33l56.12,0a6.89,6.89 0 0 1 6.88,6.88zm-128,59.78l0,-32.33l63,0l0,32.33l-63,0zm63,2l0,32.34l-63,0l0,-32.34l63,0zm-65,-2l-63,0l0,-32.33l63,0l0,32.33zm2,-34.33l0,-32.33l63,0l0,32.33l-63,0zm65,2l63,0l0,32.33l-63,0l0,-32.33zm-123.12,-34.33l56.12,0l0,32.33l-63,0l0,-25.45a6.89,6.89 0 0 1 6.88,-6.88zm-6.88,94.11l0,-25.45l63,0l0,32.34l-56.12,0a6.89,6.89 0 0 1 -6.88,-6.89zm186.12,6.89l-56.12,0l0,-32.34l63,0l0,25.45a6.89,6.89 0 0 1 -6.88,6.89z" fill="#3f3d56" id="svg_19" transform="translate(-325.74624 -174.48895)"/>
  <path d="m545.42,473.69c-1.59,-2.63 -3.48,-5.43 -6.43,-6.29c-3.42,-1 -6.93,0.98 -9.91,2.93a288.73,288.73 0 0 0 -25.69,18.93l0.01,0.1l19.17,-1.32c4.62,-0.32 9.4,-0.68 13.48,-2.87c1.55,-0.83 3.05,-1.93 4.81,-2.01c2.18,-0.1 4.08,1.43 5.57,3.02c8.84,9.41 11.4,23.8 21.31,32.06a314.62,314.62 0 0 0 -22.32,-44.55z" fill="#fff" id="svg_20" transform="translate(-325.74624 -174.48895)"/>
  <path d="m599.74,553.51c-0.98,-1.24 -1.38,-1.53 -2.34,-2.77q-11.78,-15.23 -22.13,-31.48q-7.04,-11.04 -13.38,-22.51q-3.02,-5.45 -5.87,-10.98q-2.21,-4.29 -4.32,-8.64c-0.41,-0.82 -0.8,-1.66 -1.19,-2.49c-0.92,-1.96 -1.82,-3.92 -2.79,-5.86a16.11,16.11 0 0 0 -4.47,-5.98a6.1,6.1 0 0 0 -3.17,-1.23a8.86,8.86 0 0 0 -4.6,1.32a148.05,148.05 0 0 0 -29.11,20.08a151.56,151.56 0 0 0 -23.66,26.25c-0.2,0.3 -0.7,0.01 -0.49,-0.29q1.25,-1.76 2.54,-3.48a152.4,152.4 0 0 1 38.91,-36.3q3.79,-2.45 7.71,-4.67c1.32,-0.75 2.65,-1.49 4,-2.18a9.73,9.73 0 0 1 4.23,-1.31c5.14,-0.08 7.8,5.74 9.62,9.65q0.86,1.85 1.75,3.69q3.33,6.97 6.92,13.82q2.22,4.22 4.53,8.4q7.2,13.01 15.3,25.49c7.16,11.02 14.26,20.76 22.41,31.06c0.22,0.29 -0.18,0.69 -0.4,0.41z" fill="#fff" id="svg_21" transform="translate(-325.74624 -174.48895)"/>
  <path d="m505.86,480.09c-0.3,-0.33 -0.6,-0.66 -0.9,-1c-2.37,-2.62 -4.91,-5.2 -8.16,-6.71a11.84,11.84 0 0 0 -4.96,-1.15a14.16,14.16 0 0 0 -5.16,1.13c-0.77,0.31 -1.53,0.66 -2.28,1.03c-0.85,0.43 -1.69,0.89 -2.52,1.35q-2.35,1.3 -4.64,2.72q-4.56,2.81 -8.83,6.06q-2.21,1.68 -4.33,3.47q-1.98,1.67 -3.87,3.42c-0.27,0.25 -0.67,-0.15 -0.4,-0.4c0.33,-0.31 0.67,-0.62 1,-0.92q1.43,-1.29 2.9,-2.53q2.68,-2.27 5.51,-4.35q4.39,-3.26 9.08,-6.07q2.34,-1.4 4.75,-2.68c0.49,-0.26 0.98,-0.52 1.47,-0.76a23.46,23.46 0 0 1 3.5,-1.42a12.45,12.45 0 0 1 5.28,-0.52a13.76,13.76 0 0 1 4.88,1.69c3.19,1.78 5.67,4.54 8.08,7.24c0.24,0.27 -0.16,0.68 -0.4,0.4z" fill="#fff" id="svg_22" transform="translate(-325.74624 -174.48895)"/>
  <path d="m571.3,507.24l7.66,-2.8l3.8,-1.39a38.86,38.86 0 0 1 3.75,-1.29a5.92,5.92 0 0 1 3.4,0.04a7.83,7.83 0 0 1 2.64,1.65a21.49,21.49 0 0 1 2.18,2.32c0.82,0.99 1.64,1.99 2.46,3q5.07,6.2 10.07,12.45q5,6.25 9.94,12.56q4.95,6.32 9.82,12.69q0.6,0.78 1.2,1.57c0.22,0.28 0.71,0 0.49,-0.29q-4.91,-6.44 -9.9,-12.83q-4.99,-6.4 -10.06,-12.74q-5.07,-6.35 -10.2,-12.64q-1.28,-1.57 -2.56,-3.13c-0.72,-0.88 -1.44,-1.77 -2.23,-2.59a8.03,8.03 0 0 0 -5.44,-2.87a10.5,10.5 0 0 0 -3.7,0.82c-1.28,0.46 -2.56,0.93 -3.83,1.4l-7.71,2.82l-1.93,0.7c-0.34,0.13 -0.19,0.68 0.15,0.55z" fill="#fff" id="svg_23" transform="translate(-325.74624 -174.48895)"/>
  <path d="m495.79,475.68a12.36,12.36 0 0 0 -12.44,0.89a177.5,177.5 0 0 1 20.19,4.71c-2.75,-1.61 -4.91,-4.14 -7.75,-5.6z" fill="#fff" id="svg_24" transform="translate(-325.74624 -174.48895)"/>
  <path d="m483.31,476.56l-0.75,0.61c0.25,-0.21 0.52,-0.41 0.79,-0.6l-0.04,-0.01z" fill="#fff" id="svg_25" transform="translate(-325.74624 -174.48895)"/>
  <path d="m592.27,507.27a6.37,6.37 0 0 0 -2.7,-2.25l-1.05,0.04a119.34,119.34 0 0 0 31.79,36.34l-28.04,-34.13z" fill="#fff" id="svg_26" transform="translate(-325.74624 -174.48895)"/>
  <circle cx="261.6" cy="311.23" fill="#fff" id="svg_27" r="6.06"/>
  <path d="m675.27,553.05a4.51,4.51 0 0 0 4.5,-4.5l0,-93a4.5,4.5 0 1 0 -9,0l0,93a4.51,4.51 0 0 0 4.5,4.5z" fill="#3f3d56" id="svg_28" transform="translate(-325.74624 -174.48895)"/>
  <path d="m675.27,553.05a4.51,4.51 0 0 0 4.5,-4.5l0,-19.72a5.58,5.58 0 0 0 -9,0l0,19.72a4.51,4.51 0 0 0 4.5,4.5z" fill="#2f2e41" id="svg_29" transform="translate(-325.74624 -174.48895)"/>
  <path d="m675.27,534.05a4.85,4.85 0 0 0 4.84,-4.84l0,-21.21a6,6 0 0 0 -9.68,0l0,21.21a4.85,4.85 0 0 0 4.84,4.84z" fill="#6c63ff" id="svg_30" transform="translate(-325.74624 -174.48895)"/>
  <path d="m675.27,530.19a3.54,3.54 0 0 0 3.53,-3.53l0,-15.47a4.38,4.38 0 0 0 -7.06,0l0,15.47a3.54,3.54 0 0 0 3.53,3.53z" fill="#3f3d56" id="svg_31" transform="translate(-325.74624 -174.48895)"/>
  <path d="m536.44,657.52a4,4 0 0 1 -0.31,-5.64l39.31,-44a4,4 0 0 1 5.97,5.34l-39.32,43.99a4,4 0 0 1 -5.65,0.31z" fill="#6c63ff" id="svg_32" transform="translate(-325.74624 -174.48895)"/>
  <path d="m862.6,729.96c0,7.29 -1.72,12.87 -1.51,17.33a287.27,287.27 0 0 1 -36.3,13.02c-1.4,0.4 -2.8,0.78 -4.21,1.16c-7.63,-23.36 -15.27,-44.75 -18.28,-47.02c-6.89,-5.17 -10.34,16.22 -10.34,11.05c0,-5.17 3.45,-5.17 -5.16,-12.06c-8.62,-6.89 -3.45,-37.9 -3.45,-37.9l-12.06,-31.01l13.49,-49.46l17.52,-64.25l17.23,0s0.51,0.37 1.36,1.06c4.31,3.52 17.31,15.28 15.87,28.23c-0.43,3.86 0.53,15.08 2.2,30.02c5.08,45.11 16.75,94.15 16.75,107.09c0,17.23 6.89,22.4 6.89,32.74z" fill="#e6e6e6" id="svg_33" transform="translate(-325.74624 -174.48895)"/>
  <path d="m848.15,589.96c-0.02,-0.05 -0.03,-0.09 -0.05,-0.13a26.64,26.64 0 0 0 -1.35,-3.04c-2.91,-5.47 0.17,-13.87 -3.11,-23.15c-5.3,-15.04 -11.76,-23.91 -21.23,-31.86c-0.28,-0.24 -0.56,-0.47 -0.85,-0.71l-0.01,-0.01c-6.32,-5.19 -13.94,-10.04 -23.4,-16.08c-1.97,-1.26 -4.03,-2.57 -6.17,-3.95c-2.76,-1.77 -2.61,-7.67 -2.45,-13.91c0.18,-6.93 0.37,-14.11 -3.03,-18.59l-0.22,-0.29l-0.35,-0.09a150.44,150.44 0 0 0 -35.42,-2.73l-0.01,0a69.66,69.66 0 0 0 -14.93,2.19c-0.36,0.1 -0.72,0.2 -1.07,0.32c-0.27,0.07 -0.54,0.16 -0.81,0.25l-0.22,0.08l-0.17,0.16c-3.29,3.29 -4.05,9.19 -4.41,15.34l0,0.01q-0.11,1.68 -0.18,3.36c-0.28,5.98 -0.54,11.63 -2.74,14.08a57.79,57.79 0 0 1 -17.47,13.44c-10.33,5.1 -18.5,4.94 -18.62,4.94l-0.95,-0.03l-0.09,0.94c-6.86,13.07 -6.6,46.79 -6.81,82.9q-0.02,3.01 -0.04,6.06c-0.12,16.82 -0.44,33.93 -1.7,49.52c-0.55,6.7 -1.26,13.11 -2.21,19.1c-4.62,29.17 -25.55,4.95 -35.56,24.36a24.53,24.53 0 0 0 1.65,5.55c1.15,0.68 2.33,1.34 3.5,2q7.78,4.33 15.86,8.09c0.3,0.14 0.6,0.28 0.9,0.41a236.74,236.74 0 0 0 30.46,11.62c2.03,0.62 4.06,1.21 6.11,1.77a233.59,233.59 0 0 0 55.61,8.33a1.7,1.7 0 0 1 0.23,-0.01a288.59,288.59 0 0 0 65.84,-9.49q0.45,-0.12 0.9,-0.24c1.41,-0.38 2.81,-0.76 4.21,-1.16a287.28,287.28 0 0 0 36.3,-13.02a9.24,9.24 0 0 0 0.13,1.31a3.03,3.03 0 0 0 0.06,0.42c0.02,-0.16 0.04,-0.32 0.05,-0.48c0.06,-0.47 0.11,-0.95 0.16,-1.43c6.12,-59.68 -6.59,-110.35 -16.34,-136.15z" fill="#3f3d56" id="svg_34" transform="translate(-325.74624 -174.48895)"/>
  <path d="m710.71,443.69a55.98,55.98 0 1 0 -2.84,-47.69c-0.26,0.64 -0.49,1.28 -0.72,1.94a55.91,55.91 0 0 0 3.56,45.75z" fill="#ffb6b6" id="svg_35" transform="translate(-325.74624 -174.48895)"/>
  <path d="m376.92,223.45c2.41,-6.74 1.36,-3.23 3.79,-9.94c-1.59,5.95 0.92,9.28 0.69,9.94l66.66,0l0,-38.75c-19.53,-7.74 -38.62,-14.32 -50.15,0a38.75,38.75 0 0 0 -38.75,38.75l17.76,0z" fill="#b79c67" id="svg_36" transform="matrix(1 0 0 1 0 0)"/>
  <path d="m400.55,331.17c0.05,-0.72 0.12,-1.46 0.23,-2.18c0.71,-5.28 2.51,-10.36 4.33,-15.38c1.92,-5.41 3.87,-10.84 5.82,-16.25a46.52,46.52 0 0 0 2.17,29.53c11.25,-8.77 4.16,-28.81 18.87,-28.81c35.36,0 71.75,-28.68 71.75,-64.07c0,-35.36 -15.17,-61.81 -50.53,-61.81c-35.4,0 -64.1,16.19 -64.79,51.56c43.57,10.25 3.92,103.82 12.15,107.41z" fill="#b79c67" id="svg_37" transform="matrix(1 0 0 1 0 0)"/>
  <circle cx="499.31" cy="187.59" fill="#b79c67" id="svg_38" r="41"/>
  <path d="m888.98,597.24q-0.21,3.16 -0.37,6.74c-2.12,44.89 -0.29,105.32 -14.58,138.11q-4.8,2.62 -9.7,5.02q-0.2,0.09 -0.36,0.18c-0.88,0.43 -1.76,0.85 -2.64,1.25a0.3,0.3 0 0 1 -0.11,0.06a238.81,238.81 0 0 1 -29.81,11.71c-1.25,0.4 -2.51,0.78 -3.77,1.16q-0.41,0.12 -0.81,0.24a233.93,233.93 0 0 1 -59.04,9.49c-1.04,0.03 -2.06,0.05 -3.05,0.07c-0.35,0.01 -0.69,0.02 -1.03,0.02c-1.12,0.01 -2.23,0.02 -3.35,0.02q-3.39,0 -6.75,-0.1a233.59,233.59 0 0 1 -55.61,-8.33c-2.05,-0.56 -4.08,-1.15 -6.11,-1.77a236.74,236.74 0 0 1 -30.46,-11.62c-0.3,-0.13 -0.6,-0.27 -0.9,-0.41q-8.07,-3.75 -15.86,-8.09c-1.17,-0.66 -2.35,-1.32 -3.5,-2a24.53,24.53 0 0 1 -1.65,-5.55c-2.27,-10.91 -4.09,-3.55 -5.39,-26.25c-1.19,-20.81 -1.95,-41.68 -2.23,-53.61c-0.09,-3.18 -0.12,-5.73 -0.13,-7.47c1.06,-7.58 18.1,-16.18 42.95,-24.35c2.35,-0.77 4.78,-1.54 7.27,-2.3c6.72,-2.07 13.9,-4.1 21.4,-6.06c19.1,-5 40.31,-9.59 61.36,-13.38c10.39,-1.86 20.74,-3.53 30.79,-4.95c17.63,-2.5 34.31,-4.23 48.58,-4.94c1.37,-0.07 2.71,-0.13 4.03,-0.17c1.42,-0.06 2.81,-0.1 4.17,-0.13c20.56,-0.45 34.6,1.69 36.66,7.41z" fill="#2f2e41" id="svg_39" transform="translate(-325.74624 -174.48895)"/>
  <path d="m888.98,597.24q-0.21,3.16 -0.37,6.74c-15.58,-16.78 -183.42,58.18 -254.48,103.21c-1.19,-20.81 -1.95,-41.68 -2.23,-53.61c-0.09,-3.18 -0.12,-5.73 -0.13,-7.47c1.06,-7.58 18.1,-16.18 42.95,-24.35c2.35,-0.77 4.78,-1.54 7.27,-2.3c6.72,-2.07 13.9,-4.1 21.4,-6.06c19.1,-5 40.31,-9.59 61.36,-13.38c10.39,-1.86 20.74,-3.53 30.79,-4.95c17.63,-2.5 34.31,-4.23 48.58,-4.94c1.37,-0.07 2.71,-0.13 4.03,-0.17c1.42,-0.06 2.81,-0.1 4.17,-0.13c20.56,-0.45 34.6,1.69 36.66,7.41z" id="svg_40" opacity="0.2" transform="translate(-325.74624 -174.48895)"/>
  <path d="m547.65,649.25a17.32,17.32 0 0 0 26.55,0.7l56.95,23.39l-6.14,-31.39l-53.14,-17.4a17.42,17.42 0 0 0 -24.22,24.7z" fill="#ffb6b6" id="svg_41" transform="translate(-325.74624 -174.48895)"/>
  <path d="m737.08,518.51l-0.31,-0.03l-33.21,2.41a29.81,29.81 0 0 0 -21.56,11.67a29.22,29.22 0 0 0 -3.08,5l0,0a29.8,29.8 0 0 0 -2.46,18.89l15.63,78.7l-37.61,-3.41l-13.74,2.34l-16.2,-6.53l-33.25,0.56l-0.77,2.55l-6.98,23.12l-0.55,1.82l50.78,32l14.72,-4.48l6.94,5.33l0.33,0.01l13.75,0.27l58.65,1.15l16.03,-28.4l2.5,-4.46c18.62,-41.71 23.22,-70.82 21.76,-90.88c-0.76,-10.6 -3.22,-18.66 -6.18,-24.73c-9.17,-18.76 -24.54,-22.74 -25.19,-22.9z" fill="#3f3d56" id="svg_42" transform="translate(-325.74624 -174.48895)"/>
  <path d="m504.49,223.99a47.35,47.35 0 0 1 -34.17,-30.18c-2.41,-6.98 -3.32,-14.64 -7.36,-20.85a111.47,111.47 0 0 0 14.66,-27.54c1.38,-3.81 4.62,-10.71 -0.87,-12.8c-4.37,-1.67 -9.33,2.36 -11.92,5.53a21.06,21.06 0 0 0 -4.14,8.23q-1.34,-5.92 -2.68,-11.83a1.54,1.54 0 0 0 -1.84,-1.05c-7.32,1.25 -12.64,8.03 -13.56,15.17a15.45,15.45 0 0 0 2.36,10.52c2.35,3.58 5.8,6.14 9.07,8.81c3.49,2.83 6.44,5.85 8.32,10c1.94,4.31 2.82,9.03 4.11,13.55a50.21,50.21 0 0 0 37.22,35.33c1.88,0.42 2.69,-2.48 0.8,-2.89zm-41.35,-71.71a17.41,17.41 0 0 1 2.84,-10.67a16.89,16.89 0 0 1 3.85,-4.17c1.44,-1.1 3.55,-2.55 5.44,-2.14c2.46,0.52 1.47,3.26 0.95,4.92q-1.03,3.27 -2.27,6.47a106.46,106.46 0 0 1 -5.59,12.11c-1.1,2.04 -2.27,4.03 -3.5,6q-1.26,-5.6 -2.53,-11.19a1.26,1.26 0 0 0 0.81,-1.33zm-17.52,0.59a14.81,14.81 0 0 1 9.82,-16.11q3.57,15.77 7.14,31.54c-0.49,0.73 -0.99,1.44 -1.5,2.16c-0.14,-0.16 -0.26,-0.32 -0.4,-0.47c-4.99,-5.43 -13.7,-9.14 -15.06,-17.12z" fill="#d4ffaa" id="svg_43"/>
 </g>
</svg>