<?xml version="1.0"?>
<svg width="731.66157" height="436.37988" xmlns="http://www.w3.org/2000/svg" xmlns:svg="http://www.w3.org/2000/svg" xmlns:se="http://svg-edit.googlecode.com" data-name="Layer 1">
 <g class="layer">
  <title>Layer 1</title>
  <path d="m277.2809,566.58242c-21.53541,-7.834 -40.22952,-26.57443 -42.601,-49.36718a105.58313,105.58313 0 0 0 70.66119,16.17963c9.53107,-1.23581 20.00324,-3.60273 28.15931,1.48136c5.075,3.16333 8.22562,8.77995 9.671,14.58259c1.44526,5.803 1.38007,11.86072 1.30629,17.84051l0.67057,1.33378c-22.49613,4.36689 -46.33196,5.78332 -67.86736,-2.05069z" fill="#f0f0f0" id="svg_1" transform="translate(-234.16922 -231.81006)"/>
  <path d="m235.14711,517.10146a90.24506,90.24506 0 0 0 44.49883,33.20826a38.86249,38.86249 0 0 0 11.95991,2.28592a22.28943,22.28943 0 0 0 11.31506,-3.09551c3.23384,-1.82264 6.33065,-4.0615 9.95123,-5.0663a13.64789,13.64789 0 0 1 11.00924,1.83764c4.06056,2.5494 6.96292,6.40578 9.67013,10.27564c3.00584,4.29674 6.05989,8.80733 10.7521,11.41587c0.56853,0.31606 0.04486,1.17974 -0.5228,0.86416c-8.16364,-4.53841 -11.18634,-14.1646 -18.13507,-20.01674c-3.24241,-2.73071 -7.32739,-4.50084 -11.61242,-3.61857c-3.74707,0.77151 -6.9425,3.07751 -10.20088,4.95127a23.78447,23.78447 0 0 1 -10.95093,3.439a35.92747,35.92747 0 0 1 -12.00366,-1.81766a87.554,87.554 0 0 1 -24.50757,-12.17349a91.8454,91.8454 0 0 1 -22.11075,-22.00715c-0.37494,-0.5289 0.51509,-1.00775 0.88758,-0.4823l0,-0.00004z" fill="#fff" id="svg_2" transform="translate(-234.16922 -231.81006)"/>
  <path d="m273.74879,548.68008a13.53965,13.53965 0 0 1 -16.12633,6.87949c-0.62,-0.1948 -0.34638,-1.16733 0.2744,-0.97227a12.53742,12.53742 0 0 0 14.98777,-6.43c0.2877,-0.58275 1.15021,-0.05661 0.86416,0.52281l0,-0.00003z" fill="#fff" id="svg_3" transform="translate(-234.16922 -231.81006)"/>
  <path d="m301.40294,550.64024a26.09656,26.09656 0 0 0 -12.0484,-14.71516c-0.56739,-0.31806 -0.04391,-1.18184 0.5228,-0.86416a27.14437,27.14437 0 0 1 12.50633,15.33795c0.19878,0.62009 -0.783,0.8581 -0.98073,0.24137z" fill="#fff" id="svg_4" transform="translate(-234.16922 -231.81006)"/>
  <path d="m248.94086,532.87a7.66414,7.66414 0 0 0 1.26221,-7.162c-0.20655,-0.61726 0.77552,-0.85462 0.98072,-0.24137a8.58819,8.58819 0 0 1 -1.37878,7.92612a0.522,0.522 0 0 1 -0.69348,0.17068a0.50755,0.50755 0 0 1 -0.17067,-0.69348l0,0.00005z" fill="#fff" id="svg_5" transform="translate(-234.16922 -231.81006)"/>
  <path d="m289.03238,461.8449c0.13994,0.38176 0.27987,0.76352 0.428,1.1476a100.93226,100.93226 0 0 0 6.93983,14.82906c0.20377,0.37034 0.41586,0.74258 0.62985,1.10629a106.4046,106.4046 0 0 0 25.67519,29.58826a103.33215,103.33215 0 0 0 13.0111,8.78694c6.28889,3.58315 13.39275,6.96782 17.99519,12.26338a17.72566,17.72566 0 0 1 1.35346,1.72679l-8.34165,36.41835c-0.06049,0.07325 -0.11281,0.14881 -0.1734,0.22246l-0.26657,1.4693c-0.24419,-0.11742 -0.49494,-0.24445 -0.73913,-0.36187c-0.14194,-0.06753 -0.282,-0.14316 -0.42395,-0.21069c-0.094,-0.04758 -0.188,-0.09559 -0.2756,-0.13315c-0.03136,-0.01573 -0.06263,-0.03185 -0.08572,-0.04568c-0.08758,-0.03757 -0.16494,-0.08176 -0.2442,-0.11742q-2.10534,-1.05933 -4.20311,-2.15192c-0.00832,-0.0019 -0.00832,-0.0019 -0.01478,-0.01192a151.93537,151.93537 0 0 1 -29.866,-19.95821c-0.26932,-0.23676 -0.54706,-0.475 -0.81258,-0.72841a98.60161,98.60161 0 0 1 -11.11754,-11.63256a87.17267,87.17267 0 0 1 -5.17661,-7.141a72.48675,72.48675 0 0 1 -9.1946,-20.715c-3.90461,-14.64154 -3.08313,-30.36886 4.32693,-43.36329c0.1898,-0.33235 0.37778,-0.65693 0.57589,-0.98731z" fill="#f0f0f0" id="svg_6" transform="translate(-234.16922 -231.81006)"/>
  <path d="m289.47586,462.03264a90.245,90.245 0 0 0 15.53614,53.30636a38.86263,38.86263 0 0 0 8.173,9.02587a22.28949,22.28949 0 0 0 10.89816,4.34086c3.6794,0.49172 7.5,0.5686 10.99576,1.94617a13.64784,13.64784 0 0 1 7.68387,8.09557c1.70722,4.48029 1.70278,9.30682 1.53442,14.02661c-0.18694,5.24043 -0.46414,10.68064 1.71181,15.58844c0.26364,0.59465 -0.67447,0.969 -0.93771,0.37522c-3.78578,-8.53874 -0.4036,-18.04458 -2.42838,-26.90081c-0.9448,-4.13247 -3.1407,-8.00526 -7.09324,-9.8807c-3.45633,-1.64 -7.39607,-1.72265 -11.12584,-2.18832a23.78461,23.78461 0 0 1 -10.81419,-3.8474a35.92752,35.92752 0 0 1 -8.4899,-8.67834a87.554,87.554 0 0 1 -12.23864,-24.4751a91.84545,91.84545 0 0 1 -4.40437,-30.88367c0.01906,-0.648 1.018,-0.49451 0.99907,0.14929l0.00004,-0.00005z" fill="#fff" id="svg_7" transform="translate(-234.16922 -231.81006)"/>
  <path d="m301.28462,510.48728a13.53964,13.53964 0 0 1 -17.0179,-4.21628c-0.37772,-0.52878 0.42625,-1.14058 0.80447,-0.61109a12.5374,12.5374 0 0 0 15.83821,3.88965c0.58057,-0.29208 0.95247,0.64731 0.37522,0.93772z" fill="#fff" id="svg_8" transform="translate(-234.16922 -231.81006)"/>
  <path d="m322.18476,528.70207a26.0966,26.0966 0 0 0 -0.76043,-19.00321c-0.26154,-0.59556 0.67649,-0.97006 0.93771,-0.37522a27.14434,27.14434 0 0 1 0.7511,19.77617c-0.21462,0.61479 -1.14184,0.21371 -0.92838,-0.39774z" fill="#fff" id="svg_9" transform="translate(-234.16922 -231.81006)"/>
  <path d="m290.99566,482.92769a7.66408,7.66408 0 0 0 5.31979,-4.95847c0.20672,-0.61721 1.13376,-0.21545 0.92838,0.39774a8.58822,8.58822 0 0 1 -5.873,5.49844a0.522,0.522 0 0 1 -0.65647,-0.28124a0.50756,0.50756 0 0 1 0.28125,-0.65647l0.00005,0z" fill="#fff" id="svg_10" transform="translate(-234.16922 -231.81006)"/>
  <path d="m929.09776,565.83015c20.40916,-10.42169 36.658,-31.31785 36.2098,-54.22926a105.583,105.583 0 0 1 -68.13656,24.74248c-9.6107,-0.05489 -20.29439,-1.11664 -27.76369,4.93142c-4.64765,3.76315 -7.084,9.72445 -7.80516,15.66075c-0.721,5.9366 0.08829,11.94041 0.89654,17.86578l-0.50154,1.40609c22.86227,1.56859 46.69145,0.04443 67.10061,-10.37726z" fill="#f0f0f0" id="svg_11" transform="translate(-234.16922 -231.81006)"/>
  <path d="m964.82992,511.54541a90.24507,90.24507 0 0 1 -40.07948,38.42615a38.86258,38.86258 0 0 1 -11.58823,3.73867a22.28946,22.28946 0 0 1 -11.60976,-1.68121c-3.43335,-1.41132 -6.78187,-3.25255 -10.49851,-3.8047a13.64792,13.64792 0 0 0 -10.69987,3.17694c-3.7164,3.02918 -6.12273,7.21308 -8.33374,11.38636c-2.4549,4.63362 -4.93135,9.48541 -9.26735,12.65092c-0.52536,0.38355 0.10049,1.17631 0.62506,0.79334c7.54389,-5.50744 9.36042,-15.43218 15.53713,-22.09407c2.88217,-3.10856 6.71859,-5.36737 11.07958,-5.0185c3.81348,0.30507 7.26812,2.20081 10.73212,3.65985a23.78449,23.78449 0 0 0 11.29059,2.06681a35.92754,35.92754 0 0 0 11.68922,-3.27935a87.55383,87.55383 0 0 0 22.82538,-15.0936a91.84523,91.84523 0 0 0 19.238,-24.55807c0.30709,-0.571 -0.635,-0.9368 -0.94014,-0.36954z" fill="#fff" id="svg_12" transform="translate(-234.16922 -231.81006)"/>
  <path d="m930.40256,547.6294a13.53964,13.53964 0 0 0 16.84965,4.84511c0.59131,-0.26952 0.20027,-1.20105 -0.39183,-0.93117a12.53742,12.53742 0 0 1 -15.66448,-4.539c-0.35715,-0.543 -1.14845,0.0852 -0.79334,0.62506z" fill="#fff" id="svg_13" transform="translate(-234.16922 -231.81006)"/>
  <path d="m903.19905,552.9739a26.09659,26.09659 0 0 1 10.14828,-16.08454c0.524,-0.3854 -0.1017,-1.17827 -0.62506,-0.79335a27.1444,27.1444 0 0 0 -10.52618,16.75889c-0.12106,0.63983 0.88256,0.75535 1.003,0.119l-0.00004,0z" fill="#fff" id="svg_14" transform="translate(-234.16922 -231.81006)"/>
  <path d="m953.079,528.88983a7.66408,7.66408 0 0 1 -2.133,-6.95249c0.1291,-0.638 -0.8747,-0.75281 -1.003,-0.119a8.58826,8.58826 0 0 0 2.34259,7.69654a0.522,0.522 0 0 0 0.70921,0.08414a0.50756,0.50756 0 0 0 0.08414,-0.7092l0.00006,0.00001z" fill="#fff" id="svg_15" transform="translate(-234.16922 -231.81006)"/>
  <path d="m904.56124,463.33134c-0.09194,0.39607 -0.18389,0.79214 -0.28371,1.19151a100.93156,100.93156 0 0 1 -5.06445,15.56964c-0.1567,0.39258 -0.32143,0.78807 -0.48909,1.17532a106.40467,106.40467 0 0 1 -21.84356,32.51984a103.33227,103.33227 0 0 1 -11.83236,10.3196c-5.80077,4.329 -12.43472,8.56119 -16.35134,14.38232a17.72845,17.72845 0 0 0 -1.13094,1.88006l12.75487,35.11685c0.069,0.06526 0.13025,0.1338 0.19943,0.19946l0.44515,1.42539c0.22791,-0.14655 0.46114,-0.30344 0.689,-0.45c0.13256,-0.08446 0.26228,-0.17675 0.39483,-0.2612c0.08748,-0.05879 0.17486,-0.118 0.25715,-0.166c0.02919,-0.01946 0.05824,-0.0393 0.07946,-0.05587c0.08229,-0.048 0.15363,-0.10141 0.22791,-0.14654q1.95916,-1.31007 3.90673,-2.65224c0.008,-0.00291 0.008,-0.00291 0.0132,-0.01365a151.9357,151.9357 0 0 0 27.18632,-23.47793c0.23818,-0.26807 0.48453,-0.53866 0.71689,-0.82277a98.60258,98.60258 0 0 0 9.60338,-12.9109a87.1682,87.1682 0 0 0 4.25959,-7.72319a72.48662,72.48662 0 0 0 6.57862,-21.68811c2.07529,-15.01046 -0.67313,-30.51754 -9.62425,-42.5026c-0.22915,-0.30645 -0.4556,-0.60547 -0.69283,-0.90899z" fill="#f0f0f0" id="svg_16" transform="translate(-234.16922 -231.81006)"/>
  <path d="m904.14421,463.57217a90.24508,90.24508 0 0 1 -8.866,54.81175a38.86267,38.86267 0 0 1 -7.00162,9.962a22.28937,22.28937 0 0 1 -10.28194,5.64752c-3.59106,0.94026 -7.3732,1.48618 -10.67317,3.283a13.64793,13.64793 0 0 0 -6.63051,8.97867c-1.14356,4.65616 -0.54589,9.44555 0.20135,14.10886c0.82967,5.17771 1.77346,10.54258 0.21727,15.68063c-0.18855,0.62255 0.78846,0.87872 0.97672,0.25712c2.70751,-8.93933 -1.81746,-17.95736 -0.89662,-26.99531c0.42967,-4.21727 2.13288,-8.33061 5.82493,-10.67766c3.22853,-2.0524 7.12823,-2.6187 10.77248,-3.5393a23.78438,23.78438 0 0 0 10.25927,-5.14748a35.92751,35.92751 0 0 0 7.35879,-9.65609a87.55379,87.55379 0 0 0 9.1374,-25.79385a91.84528,91.84528 0 0 0 0.57481,-31.19085c-0.09857,-0.64078 -1.07107,-0.36563 -0.97314,0.271l-0.00002,-0.00001z" fill="#fff" id="svg_17" transform="translate(-234.16922 -231.81006)"/>
  <path d="m898.381,513.11088a13.53964,13.53964 0 0 0 16.37059,-6.27611c0.30986,-0.57121 -0.56321,-1.07955 -0.87348,-0.50758a12.53741,12.53741 0 0 1 -15.24,5.807c-0.61207,-0.2185 -0.86568,0.75947 -0.25711,0.97673l0,-0.00004z" fill="#fff" id="svg_18" transform="translate(-234.16922 -231.81006)"/>
  <path d="m879.87823,533.75655a26.09656,26.09656 0 0 1 -1.58117,-18.95257c0.18634,-0.6232 -0.79061,-0.87956 -0.97673,-0.25711a27.14439,27.14439 0 0 0 1.68545,19.71852c0.28856,0.58375 1.15944,0.07174 0.87245,-0.50884z" fill="#fff" id="svg_19" transform="translate(-234.16922 -231.81006)"/>
  <path d="m905.20431,484.49558a7.66406,7.66406 0 0 1 -5.88893,-4.267c-0.281,-0.58712 -1.15164,-0.07446 -0.87245,0.50884a8.5882,8.5882 0 0 0 6.50427,4.73485a0.522,0.522 0 0 0 0.61692,-0.3598a0.50755,0.50755 0 0 0 -0.35981,-0.61692l0,0.00003z" fill="#fff" id="svg_20" transform="translate(-234.16922 -231.81006)"/>
  <path d="m871.49841,246.80994l-143.79,0l0,9.25a2.03965,2.03965 0 0 0 0.46045,1.3c-0.29,7.23005 -0.46045,16.46 -0.46045,26.49l0,247.3c0,23.18 0.93018,42.04 2.07032,42.04l139.6499,0c1.14014,0 2.06982,-18.86 2.06982,-42.04l0,-247.3c0,-10.03 -0.16992,-19.25994 -0.46,-26.49a2.03925,2.03925 0 0 0 0.46,-1.3l-0.00004,-9.25z" fill="#fff" id="svg_21" transform="translate(-234.16922 -231.81006)"/>
  <path d="m869.42859,574.18994l-139.6499,0c-1.08838,0 -1.80738,0 -2.46143,-13.27832c-0.39258,-7.96826 -0.60889,-18.53808 -0.60889,-29.76172l0,-247.2998c0,-9.69385 0.16382,-19.11572 0.46119,-26.53028c0.186,-4.45166 0.39917,-8.01757 0.6333,-10.60009c0.45947,-5.05567 0.89648,-5.90967 1.97583,-5.90967l139.6499,0c1.07935,0 1.51611,0.854 1.97583,5.90967c0.23462,2.59228 0.44751,6.1582 0.63306,10.59814l0.00024,0.00195c0.29712,7.40674 0.46069,16.82862 0.46069,26.53028l0,247.2998c0,11.22412 -0.21606,21.79395 -0.60864,29.76172c-0.65377,13.27832 -1.37277,13.27832 -2.46118,13.27832zm-139.08179,-2l138.51367,0c0.72364,-2.73291 1.63794,-17.57031 1.63794,-41.04l0,-247.29984c0,-9.6753 -0.16308,-19.06787 -0.459,-26.44824l-0.00024,0c-0.18409,-4.40821 -0.395,-7.94141 -0.62647,-10.50147a28.88406,28.88406 0 0 0 -0.56177,-4.09033l-138.49461,0a28.89649,28.89649 0 0 0 -0.56176,4.09033c-0.2312,2.55029 -0.4419,6.0835 -0.62671,10.50147c-0.29615,7.38671 -0.45948,16.78027 -0.45948,26.44824l0,247.2998c0,23.46924 0.91456,38.3071 1.63843,41.04004z" fill="#e4e4e4" id="svg_22" transform="translate(-234.16922 -231.81006)"/>
  <path d="m869.42859,241.80994l-139.6499,0a2.07433,2.07433 0 0 0 -2.07032,2.07l0,12.18a2.03965,2.03965 0 0 0 0.46045,1.3a2.0795,2.0795 0 0 0 1.60987,0.77l139.6499,0a2.08023,2.08023 0 0 0 1.60986,-0.77a2.03925,2.03925 0 0 0 0.46,-1.3l0,-12.18a2.0739,2.0739 0 0 0 -2.06986,-2.07z" fill="#cacaca" id="svg_23" transform="translate(-234.16922 -231.81006)"/>
  <circle cx="505.55903" cy="17.56535" data-name="Ellipse 90" fill="#fff" id="b800b2fc-3bcc-4a40-9972-a80335d602c8" r="2.93962"/>
  <circle cx="516.71687" cy="17.56535" data-name="Ellipse 91" fill="#fff" id="fa63cc97-e384-451c-9b8c-3b6845b8b0f6" r="2.93962"/>
  <circle cx="527.87522" cy="17.56535" data-name="Ellipse 92" fill="#fff" id="beaeadfc-8efd-4e6c-adaf-945ac9d4d623" r="2.93962"/>
  <path d="m858.49841,245.45l-12.85009,0a0.95609,0.95609 0 0 0 -0.94971,0.95a0.80091,0.80091 0 0 0 0.1001,0.41a0.94344,0.94344 0 0 0 0.84961,0.54l12.85009,0a0.948,0.948 0 0 0 0.86036,-0.54a0.91378,0.91378 0 0 0 0.08984,-0.41a0.94956,0.94956 0 0 0 -0.9502,-0.95z" fill="#fff" id="svg_24" transform="translate(-234.16922 -231.81006)"/>
  <path d="m858.49841,249.02l-12.85009,0a0.95,0.95 0 0 0 0,1.9l12.85009,0a0.95,0.95 0 1 0 0,-1.9z" fill="#fff" id="svg_25" transform="translate(-234.16922 -231.81006)"/>
  <path d="m858.49841,252.59l-12.85009,0a0.95,0.95 0 0 0 0,1.9l12.85009,0a0.95,0.95 0 1 0 0,-1.9z" fill="#fff" id="svg_26" transform="translate(-234.16922 -231.81006)"/>
  <path d="m579.32919,53.01994l-26.43994,0a5.002,5.002 0 0 0 -5,5l0,22.9a5.0084,5.0084 0 0 0 5,5l26.43994,0a5.0147,5.0147 0 0 0 5,-5l0,-22.9a5.00824,5.00824 0 0 0 -5,-5z" fill="#aaaaff" id="svg_27" transform="matrix(1 0 0 1 0 0)"/>
  <path d="m846.34851,332.68994l-92.1499,0a2.27,2.27 0 1 0 0,4.54l92.1499,0a2.27,2.27 0 1 0 0,-4.54z" fill="#e4e4e4" id="svg_28" transform="translate(-234.16922 -231.81006)"/>
  <path d="m789.19861,343.33l-35,0a2.27,2.27 0 1 0 0,4.54l35,0a2.27,2.27 0 1 0 0,-4.54z" fill="#e4e4e4" id="svg_29" transform="translate(-234.16922 -231.81006)"/>
  <path d="m579.32919,152.01994l-26.43994,0a5.002,5.002 0 0 0 -5,5l0,22.9a5.0084,5.0084 0 0 0 5,5l26.43994,0a5.0147,5.0147 0 0 0 5,-5l0,-22.9a5.00824,5.00824 0 0 0 -5,-5z" fill="#aaaaff" id="svg_30" transform="matrix(1 0 0 1 0 0)"/>
  <path d="m846.34851,431.68994l-92.1499,0a2.27,2.27 0 1 0 0,4.54l92.1499,0a2.27,2.27 0 1 0 0,-4.54z" fill="#e4e4e4" id="svg_31" transform="translate(-234.16922 -231.81006)"/>
  <path d="m789.19861,442.33l-35,0a2.27,2.27 0 1 0 0,4.54l35,0a2.27,2.27 0 1 0 0,-4.54z" fill="#e4e4e4" id="svg_32" transform="translate(-234.16922 -231.81006)"/>
  <path d="m579.32919,251.01994l-26.43994,0a5.002,5.002 0 0 0 -5,5l0,22.9a5.0084,5.0084 0 0 0 5,5l26.43994,0a5.0147,5.0147 0 0 0 5,-5l0,-22.9a5.00824,5.00824 0 0 0 -5,-5z" fill="#aaaaff" id="svg_33"/>
  <path d="m846.34851,530.68994l-92.1499,0a2.27,2.27 0 1 0 0,4.54l92.1499,0a2.27,2.27 0 1 0 0,-4.54z" fill="#e4e4e4" id="svg_34" transform="translate(-234.16922 -231.81006)"/>
  <path d="m789.19861,541.33l-35,0a2.27,2.27 0 1 0 0,4.54l35,0a2.27,2.27 0 1 0 0,-4.54z" fill="#e4e4e4" id="svg_35" transform="translate(-234.16922 -231.81006)"/>
  <path d="m454.32919,3.06988a2.0739,2.0739 0 0 0 -2.06982,-2.07l-369.6499,0a2.07433,2.07433 0 0 0 -2.07032,2.07l0,12.18a2.01687,2.01687 0 0 0 0.53028,1.37c-0.33008,8.27 -0.53028,19.17 -0.53028,31.11l0,274.91c0,25.78 0.93018,46.74 2.07032,46.74l369.6499,0c1.14014,0 2.06982,-20.96 2.06982,-46.74l0,-274.91c0,-11.94 -0.1997,-22.84 -0.52978,-31.11a2.01645,2.01645 0 0 0 0.52978,-1.37l0,-12.18z" fill="#fff" id="svg_36" transform="matrix(1 0 0 1 0 0)"/>
  <path d="m686.42859,602.18994l-369.6499,0c-1.13,0 -1.81214,0 -2.46179,-14.6582c-0.39246,-8.855 -0.60853,-20.60352 -0.60853,-33.082l0,-274.90974c0,-11.50733 0.1886,-22.56983 0.53113,-31.1499c0.65735,-16.58008 1.406,-16.58008 2.53919,-16.58008l369.6499,0c1.13306,0 1.88184,0.00293 2.53931,16.58008l0,0c0.342,8.57226 0.53051,19.63476 0.53051,31.1499l0,274.90971c0,12.479 -0.21606,24.22754 -0.60839,33.082c-0.64942,14.65823 -1.33155,14.65823 -2.46143,14.65823zm-369.06616,-2l368.48242,0c0.81811,-3.13525 1.65356,-20.74023 1.65356,-45.74023l0,-274.90971c0,-11.48926 -0.188,-22.52393 -0.529,-31.06983l0,-0.00048c-0.4165,-10.50342 -0.90283,-13.69971 -1.13525,-14.65967l-368.46087,0c-0.23254,0.96 -0.71887,4.15625 -1.1355,14.65967c-0.34143,8.55468 -0.52942,19.58886 -0.52942,31.07031l0,274.90971c0,25 0.83563,42.60449 1.65406,45.74023z" fill="#e4e4e4" id="svg_37" transform="translate(-234.16922 -231.81006)"/>
  <path d="m686.42859,232.80994l-369.6499,0a2.07433,2.07433 0 0 0 -2.07032,2.07l0,12.18a2.01687,2.01687 0 0 0 0.53028,1.37a2.05118,2.05118 0 0 0 1.54,0.7l369.6499,0a2.0512,2.0512 0 0 0 1.54,-0.7a2.01645,2.01645 0 0 0 0.52978,-1.37l0,-12.18a2.0739,2.0739 0 0 0 -2.06974,-2.07z" fill="#cacaca" id="svg_38" transform="translate(-234.16922 -231.81006)"/>
  <circle cx="92.55903" cy="8.56535" data-name="Ellipse 90" fill="#fff" id="b7005a6f-2f7f-4001-b097-d8b6c117468f" r="2.93962"/>
  <circle cx="103.71687" cy="8.56535" data-name="Ellipse 91" fill="#fff" id="a0adf4f5-8105-4330-a35a-c3adb8f4e7bc" r="2.93962"/>
  <circle cx="114.87522" cy="8.56535" data-name="Ellipse 92" fill="#fff" id="a64b73a5-7207-44c1-bcaf-f99ab7b9c6dc" r="2.93962"/>
  <path d="m675.49841,236.45l-12.85009,0a0.95,0.95 0 0 0 0,1.9l12.85009,0a0.95,0.95 0 1 0 0,-1.9z" fill="#fff" id="svg_39" transform="translate(-234.16922 -231.81006)"/>
  <path d="m675.49841,240.02l-12.85009,0a0.95,0.95 0 0 0 0,1.9l12.85009,0a0.95,0.95 0 1 0 0,-1.9z" fill="#fff" id="svg_40" transform="translate(-234.16922 -231.81006)"/>
  <path d="m675.49841,243.59l-12.85009,0a0.95,0.95 0 0 0 0,1.9l12.85009,0a0.95,0.95 0 1 0 0,-1.9z" fill="#fff" id="svg_41" transform="translate(-234.16922 -231.81006)"/>
  <path d="m202.08945,62.01994l-43.26026,0a8.18973,8.18973 0 0 0 -8.17968,8.18l0,37.47a8.18973,8.18973 0 0 0 8.17968,8.18l43.26026,0a8.18974,8.18974 0 0 0 8.17969,-8.18l0,-37.47a8.18974,8.18974 0 0 0 -8.17969,-8.18z" fill="#aaaaff" id="svg_42" transform="matrix(1 0 0 1 0 0)"/>
  <path d="m614.68836,308.32l-150.77979,0a3.715,3.715 0 0 0 0,7.43l150.77979,0a3.715,3.715 0 0 0 0,-7.43z" fill="#e4e4e4" id="svg_43" transform="translate(-234.16922 -231.81006)"/>
  <path d="m521.17859,325.72992l-57.27,0a3.715,3.715 0 0 0 0,7.43l57.27,0a3.715,3.715 0 0 0 0,-7.43z" fill="#e4e4e4" id="svg_44" transform="translate(-234.16922 -231.81006)"/>
  <path d="m202.08945,162.01994l-43.26026,0a8.18973,8.18973 0 0 0 -8.17968,8.18l0,37.47a8.18973,8.18973 0 0 0 8.17968,8.18l43.26026,0a8.18974,8.18974 0 0 0 8.17969,-8.18l0,-37.47a8.18974,8.18974 0 0 0 -8.17969,-8.18z" fill="#aaaaff" id="svg_45" transform="matrix(1 0 0 1 0 0)"/>
  <path d="m614.68836,408.32l-150.77979,0a3.715,3.715 0 0 0 0,7.43l150.77979,0a3.715,3.715 0 0 0 0,-7.43z" fill="#e4e4e4" id="svg_46" transform="translate(-234.16922 -231.81006)"/>
  <path d="m521.17859,425.72992l-57.27,0a3.715,3.715 0 0 0 0,7.43l57.27,0a3.715,3.715 0 0 0 0,-7.43z" fill="#e4e4e4" id="svg_47" transform="translate(-234.16922 -231.81006)"/>
  <path d="m202.08945,262.01994l-43.26026,0a8.18973,8.18973 0 0 0 -8.17968,8.18l0,37.47a8.18973,8.18973 0 0 0 8.17968,8.18l43.26026,0a8.18974,8.18974 0 0 0 8.17969,-8.18l0,-37.47a8.18974,8.18974 0 0 0 -8.17969,-8.18z" fill="#aaaaff" id="svg_48" transform="matrix(1 0 0 1 0 0)"/>
  <path d="m614.68836,508.32l-150.77979,0a3.715,3.715 0 0 0 0,7.43l150.77979,0a3.715,3.715 0 0 0 0,-7.43z" fill="#e4e4e4" id="svg_49" transform="translate(-234.16922 -231.81006)"/>
  <path d="m521.17859,525.72992l-57.27,0a3.715,3.715 0 0 0 0,7.43l57.27,0a3.715,3.715 0 0 0 0,-7.43z" fill="#e4e4e4" id="svg_50" transform="translate(-234.16922 -231.81006)"/>
  <path d="m752.43145,667.18994l-247.64879,0c-1.14175,0 -2.07052,-17.54946 -2.07052,-39.12333l0,-230.134c0,-21.57387 0.92877,-39.12334 2.07052,-39.12334l247.64879,0c1.14175,0 2.07052,17.54947 2.07052,39.12334l0,230.134c0.00003,21.57387 -0.92877,39.12333 -2.07052,39.12333z" fill="#fff" id="svg_51" transform="translate(-234.16922 -231.81006)"/>
  <path d="m752.43152,668.18994l-247.64893,0c-1.0476,0 -1.80468,0 -2.46191,-12.41846c-0.39258,-7.415 -0.60864,-17.2539 -0.60864,-27.70507l0,-230.13379c0,-10.45069 0.21606,-20.29 0.60864,-27.70459c0.65723,-12.41895 1.41431,-12.41895 2.46191,-12.41895l247.64893,0c1.04761,0 1.80469,0 2.46191,12.41895c0.39258,7.41455 0.60865,17.2539 0.60865,27.70459l0,230.13379c0,10.45117 -0.21607,20.29 -0.60865,27.70507c-0.65722,12.41846 -1.4143,12.41846 -2.46191,12.41846zm-247.09546,-2l246.542,0c0.71778,-2.59082 1.624,-16.394 1.624,-38.12353l0,-230.13379c0,-21.7295 -0.90625,-35.53272 -1.624,-38.12354l-246.542,0c-0.71777,2.59082 -1.624,16.394 -1.624,38.12354l0,230.13379c-0.00006,21.72949 0.90623,35.53271 1.624,38.12353z" fill="#e4e4e4" id="svg_52" transform="translate(-234.16922 -231.81006)"/>
  <path d="m752.43145,375.12966l-247.64879,0a2.07278,2.07278 0 0 1 -2.07052,-2.07051l0,-12.17936a2.07279,2.07279 0 0 1 2.07052,-2.07052l247.64879,0a2.07279,2.07279 0 0 1 2.07052,2.07052l0,12.17936a2.07278,2.07278 0 0 1 -2.07052,2.07051z" fill="#cacaca" id="svg_53" transform="translate(-234.16922 -231.81006)"/>
  <circle cx="280.55903" cy="134.56535" data-name="Ellipse 90" fill="#fff" id="a9432236-99f6-4733-9920-e312ad95354d" r="2.93962"/>
  <circle cx="291.71687" cy="134.56535" data-name="Ellipse 91" fill="#fff" id="fc8d1cb9-e477-4d66-a241-a00170356ca4" r="2.93962"/>
  <circle cx="302.87522" cy="134.56535" data-name="Ellipse 92" fill="#fff" id="bc1189a4-69b8-41a6-80e2-1e52c3b8abfb" r="2.93962"/>
  <path d="m741.49915,364.35211l-12.84867,0a0.95175,0.95175 0 0 1 0,-1.90351l12.84867,0a0.95176,0.95176 0 0 1 0,1.90351z" fill="#fff" id="svg_54" transform="translate(-234.16922 -231.81006)"/>
  <path d="m741.49915,367.92118l-12.84867,0a0.95175,0.95175 0 0 1 0,-1.9035l12.84867,0a0.95175,0.95175 0 1 1 0,1.9035z" fill="#fff" id="svg_55" transform="translate(-234.16922 -231.81006)"/>
  <path d="m741.49915,371.49026l-12.84867,0a0.95175,0.95175 0 0 1 0,-1.90351l12.84867,0a0.95176,0.95176 0 0 1 0,1.90351z" fill="#fff" id="svg_56" transform="translate(-234.16922 -231.81006)"/>
  <path d="m346.71323,218.9165l-31.59323,0a5.98137,5.98137 0 0 1 -5.97452,-5.97452l0,-27.36322a5.98137,5.98137 0 0 1 5.97452,-5.97453l31.59323,0a5.98138,5.98138 0 0 1 5.97453,5.97453l0,27.36318a5.98137,5.98137 0 0 1 -5.97453,5.97456z" fill="#aaaaff" id="svg_57" transform="matrix(1 0 0 1 0 0)"/>
  <path d="m711.187,427.42591l-110.11047,0a2.71246,2.71246 0 0 1 0,-5.42492l110.11047,0a2.71246,2.71246 0 0 1 0,5.42492z" fill="#e4e4e4" id="svg_58" transform="translate(-234.16922 -231.81006)"/>
  <path d="m642.89822,440.13986l-41.82169,0a2.71245,2.71245 0 1 1 0,-5.42491l41.82169,0a2.71246,2.71246 0 1 1 0,5.42491z" fill="#e4e4e4" id="svg_59" transform="translate(-234.16922 -231.81006)"/>
  <path d="m346.71323,299.9165l-31.59323,0a5.98137,5.98137 0 0 1 -5.97452,-5.97452l0,-27.36322a5.98137,5.98137 0 0 1 5.97452,-5.97453l31.59323,0a5.98138,5.98138 0 0 1 5.97453,5.97453l0,27.36318a5.98137,5.98137 0 0 1 -5.97453,5.97456z" fill="#aaaaff" id="svg_60" transform="matrix(1 0 0 1 0 0)"/>
  <path d="m711.187,508.42591l-110.11047,0a2.71246,2.71246 0 0 1 0,-5.42492l110.11047,0a2.71246,2.71246 0 0 1 0,5.42492z" fill="#e4e4e4" id="svg_61" transform="translate(-234.16922 -231.81006)"/>
  <path d="m642.89822,521.13986l-41.82169,0a2.71245,2.71245 0 1 1 0,-5.42491l41.82169,0a2.71246,2.71246 0 1 1 0,5.42491z" fill="#e4e4e4" id="svg_62" transform="translate(-234.16922 -231.81006)"/>
  <path d="m346.71323,380.9165l-31.59323,0a5.98137,5.98137 0 0 1 -5.97452,-5.97452l0,-27.36322a5.98137,5.98137 0 0 1 5.97452,-5.97453l31.59323,0a5.98138,5.98138 0 0 1 5.97453,5.97453l0,27.36318a5.98137,5.98137 0 0 1 -5.97453,5.97456z" fill="#aaaaff" id="svg_63" transform="matrix(1 0 0 1 0 0)"/>
  <path d="m711.187,589.42591l-110.11047,0a2.71246,2.71246 0 1 1 0,-5.42492l110.11047,0a2.71246,2.71246 0 1 1 0,5.42492z" fill="#e4e4e4" id="svg_64" transform="translate(-234.16922 -231.81006)"/>
  <path d="m642.89822,602.13986l-41.82169,0a2.71245,2.71245 0 1 1 0,-5.42491l41.82169,0a2.71246,2.71246 0 1 1 0,5.42491z" fill="#e4e4e4" id="svg_65" transform="translate(-234.16922 -231.81006)"/>
 </g>
</svg>